<svg width="32" height="32" viewBox="0 0 32 32" fill="none" xmlns="http://www.w3.org/2000/svg">
<g clip-path="url(#clip0_5412_32)">
<rect width="32" height="32" rx="2.75" fill="#D8D8D8"/>
<path d="M21.6013 4.46044V5.10774C20.9108 5.12932 20.3822 5.21563 20.0154 5.36667C19.6701 5.49613 19.4436 5.75505 19.3357 6.14343C19.2278 6.51024 19.1739 7.09281 19.1739 7.89115V23.9443C19.1739 24.7211 19.2278 25.3036 19.3357 25.692C19.4652 26.0804 19.7025 26.3393 20.0477 26.4688C20.393 26.5982 20.9108 26.6845 21.6013 26.7277V27.375C21.0187 27.3318 20.2851 27.3103 19.4004 27.3103C18.5158 27.2887 17.6203 27.2779 16.7141 27.2779C15.6569 27.2779 14.6751 27.2887 13.7689 27.3103C12.8842 27.3103 12.1614 27.3318 11.6004 27.375V26.7277C12.2909 26.6845 12.8087 26.5982 13.1539 26.4688C13.4992 26.3393 13.7257 26.0804 13.8336 25.692C13.9631 25.3036 14.0278 24.7211 14.0278 23.9443V7.89115C14.0278 7.09281 13.9631 6.51024 13.8336 6.14343C13.7257 5.75505 13.4884 5.49613 13.1216 5.36667C12.7764 5.21563 12.2693 5.12932 11.6004 5.10774V4.46044C12.1614 4.48202 12.8842 4.50359 13.7689 4.52517C14.6751 4.54675 15.6569 4.55754 16.7141 4.55754C17.6203 4.55754 18.5158 4.54675 19.4004 4.52517C20.2851 4.50359 21.0187 4.48202 21.6013 4.46044Z" fill="white"/>
</g>
<defs>
<clipPath id="clip0_5412_32">
<rect width="32" height="32" fill="white"/>
</clipPath>
</defs>
</svg>
